<?xml version="1.0" standalone="no"?>
<!DOCTYPE svg PUBLIC "-//W3C//DTD SVG 20010904//EN"
 "http://www.w3.org/TR/2001/REC-SVG-20010904/DTD/svg10.dtd">
<svg version="1.0" xmlns="http://www.w3.org/2000/svg"
 width="35" height="35" viewBox="0 0 512.000000 512.000000"
 preserveAspectRatio="xMidYMid meet">

<g transform="translate(0.000000,512.000000) scale(0.100000,-0.100000)"
fill="#ffffffff" stroke="none">
<path d="M2044 5101 c-77 -35 -81 -46 -145 -430 -33 -190 -59 -349 -59 -353 0
-4 -48 -31 -107 -60 -59 -29 -157 -86 -218 -126 l-110 -73 -337 127 c-312 117
-341 126 -384 119 -32 -4 -56 -16 -80 -38 -28 -26 -407 -666 -485 -819 -37
-72 -20 -146 47 -209 22 -20 145 -123 274 -229 l234 -192 0 -258 0 -258 -234
-192 c-129 -106 -252 -209 -274 -229 -67 -63 -84 -137 -47 -209 78 -153 457
-793 485 -819 24 -22 48 -34 80 -38 43 -7 72 2 384 119 l337 127 110 -73 c61
-40 159 -97 218 -126 59 -29 107 -56 107 -60 0 -4 26 -163 59 -353 64 -384 68
-395 145 -430 38 -17 74 -19 516 -19 442 0 478 2 516 19 77 35 81 46 145 430
33 190 59 349 59 353 0 4 48 31 107 60 59 29 157 86 218 126 l110 73 337 -127
c312 -117 341 -126 384 -119 32 4 56 16 80 38 28 26 407 666 485 819 37 72 20
146 -47 209 -22 20 -145 123 -274 229 l-234 192 0 258 0 258 234 192 c129 106
252 209 274 229 67 63 84 137 47 209 -78 153 -457 793 -485 819 -24 22 -48 34
-80 38 -43 7 -72 -2 -384 -119 l-337 -127 -110 73 c-61 40 -159 97 -218 126
-59 29 -107 56 -107 60 0 4 -26 163 -59 353 -64 384 -68 395 -145 430 -38 17
-74 19 -516 19 -442 0 -478 -2 -516 -19z m872 -628 c29 -172 57 -328 63 -346
18 -52 57 -82 172 -130 130 -53 243 -119 362 -208 97 -74 142 -94 190 -85 17
3 165 57 329 118 183 68 302 108 307 102 12 -11 292 -496 294 -508 1 -5 -110
-101 -247 -215 -137 -113 -259 -219 -270 -234 -25 -34 -27 -92 -7 -279 10
-106 10 -150 0 -255 -20 -188 -18 -246 7 -280 11 -15 133 -121 270 -234 137
-114 248 -210 247 -215 -2 -12 -282 -497 -294 -508 -5 -6 -124 34 -307 102
-164 61 -312 115 -329 118 -47 9 -94 -11 -180 -77 -91 -70 -232 -156 -328
-199 -37 -16 -69 -30 -71 -30 -2 0 -4 81 -4 180 l0 180 28 16 c236 143 412
330 517 549 77 161 115 333 115 520 0 209 -37 371 -127 550 -116 232 -312 429
-544 545 -52 27 -111 51 -131 55 -80 15 -165 -39 -187 -120 -7 -26 -11 -188
-11 -457 l0 -416 -106 -61 c-58 -34 -110 -61 -114 -61 -4 0 -56 27 -114 61
l-106 61 0 416 c0 269 -4 431 -11 457 -22 81 -107 135 -187 120 -20 -4 -79
-28 -131 -55 -232 -116 -428 -313 -544 -545 -90 -179 -127 -341 -127 -550 0
-446 222 -821 633 -1069 l27 -16 0 -180 c0 -99 -2 -180 -4 -180 -2 0 -34 14
-71 30 -96 43 -237 129 -328 199 -86 66 -133 86 -180 77 -17 -3 -165 -57 -329
-118 -183 -68 -302 -108 -307 -102 -12 11 -292 496 -294 508 -1 5 110 101 247
215 137 113 259 219 270 234 25 34 27 92 7 280 -10 105 -10 149 0 255 20 187
18 245 -7 279 -11 15 -133 121 -270 234 -137 114 -248 210 -247 215 2 12 282
497 294 508 5 6 124 -34 307 -102 164 -61 312 -115 329 -118 48 -9 93 11 190
85 119 89 232 155 362 208 58 24 119 56 134 71 37 35 48 78 102 412 25 157 48
291 50 298 4 10 70 12 307 10 l302 -3 52 -312z m-899 -1923 c20 -45 65 -77
273 -197 204 -117 205 -117 270 -117 65 0 66 0 270 117 113 65 219 132 237
149 18 17 36 48 42 74 7 26 11 166 11 361 l1 318 82 -86 c280 -292 326 -719
115 -1074 -49 -82 -188 -225 -273 -280 -292 -190 -678 -190 -970 0 -85 55
-224 198 -273 280 -210 354 -165 778 113 1073 l80 85 5 -339 c3 -221 9 -348
17 -364z m763 -1712 l0 -508 -220 0 -220 0 0 508 0 507 220 0 220 0 0 -507z"/>
</g>
</svg>
