<?xml version="1.0" standalone="no"?>
<!DOCTYPE svg PUBLIC "-//W3C//DTD SVG 20010904//EN"
 "http://www.w3.org/TR/2001/REC-SVG-20010904/DTD/svg10.dtd">
<svg version="1.0" xmlns="http://www.w3.org/2000/svg"
 width="512.000000pt" height="512.000000pt" viewBox="0 0 512.000000 512.000000"
 preserveAspectRatio="xMidYMid meet">

<g transform="translate(0.000000,512.000000) scale(0.100000,-0.100000)"
fill="#ffffffff" stroke="none">
<path d="M2105 5109 c-477 -72 -870 -423 -990 -884 -33 -129 -41 -238 -37
-572 l2 -273 395 0 395 0 0 258 c0 141 5 289 10 327 21 143 104 255 238 318
l67 32 376 0 375 0 76 -38 c130 -64 207 -170 228 -312 5 -39 10 -186 10 -327
l0 -258 396 0 395 0 -3 373 c-4 370 -4 373 -31 472 -119 430 -444 748 -882
862 -99 26 -102 26 -530 29 -236 1 -457 -2 -490 -7z"/>
<path d="M1159 3125 c-299 -60 -543 -292 -619 -590 -20 -77 -20 -106 -20 -966
0 -855 1 -889 20 -965 77 -301 322 -531 627 -590 112 -21 2674 -21 2786 0 305
59 550 289 627 590 19 77 20 109 20 966 0 857 -1 889 -20 966 -77 301 -322
531 -627 590 -106 20 -2692 19 -2794 -1z m2794 -413 c127 -52 229 -187 248
-328 11 -90 11 -1538 0 -1628 -19 -141 -121 -276 -248 -328 l-58 -23 -1335 0
-1335 0 -58 23 c-127 52 -229 187 -248 328 -11 89 -11 1538 0 1626 11 87 48
165 107 228 57 61 97 87 172 111 54 17 125 18 1377 16 l1320 -2 58 -23z"/>
<path d="M2500 2149 c-114 -22 -222 -108 -274 -219 -29 -60 -31 -73 -31 -170
0 -92 3 -112 26 -160 14 -31 40 -72 58 -92 l31 -36 -90 -145 c-50 -80 -93
-158 -96 -174 -7 -38 25 -79 74 -93 47 -13 711 -13 767 0 22 5 48 19 58 31 32
40 22 74 -70 223 -47 78 -88 144 -90 149 -3 4 9 25 26 46 17 22 44 66 59 98
23 50 27 71 27 153 0 86 -3 101 -32 162 -58 123 -161 204 -292 228 -62 11 -88
11 -151 -1z"/>
</g>
</svg>
